<mxfile host="app.diagrams.net" modified="2021-08-19T09:25:52.935Z" agent="5.0 (Windows)" etag="tlAqTYQSltPJARvtdJHr" version="14.9.0" type="github">
  <diagram id="w-yBSb1UH_IL-OTTQWR8" name="Page-1">
    <mxGraphModel dx="1422" dy="781" grid="1" gridSize="10" guides="1" tooltips="1" connect="1" arrows="1" fold="1" page="1" pageScale="1" pageWidth="827" pageHeight="1169" background="none" math="0" shadow="0">
      <root>
        <mxCell id="0" />
        <mxCell id="1" parent="0" />
        <mxCell id="AcG9Qibjat7s5igX1NYG-2" value="string line;" style="whiteSpace=wrap;html=1;fontFamily=Courier New;align=left;labelBorderColor=none;rounded=0;shadow=0;sketch=0;glass=0;fillColor=#FFCCCC;strokeColor=none;" vertex="1" parent="1">
          <mxGeometry x="480" y="390" width="120" height="60" as="geometry" />
        </mxCell>
        <mxCell id="AcG9Qibjat7s5igX1NYG-3" value="Console.WriteLine(&quot;Pick the array size:&quot;);" style="whiteSpace=wrap;html=1;fontFamily=Courier New;align=left;labelBorderColor=none;rounded=0;shadow=0;sketch=0;glass=0;fillColor=#FFCCCC;strokeColor=none;" vertex="1" parent="1">
          <mxGeometry x="650" y="350" width="320" height="60" as="geometry" />
        </mxCell>
        <mxCell id="AcG9Qibjat7s5igX1NYG-5" value="line = Console.ReadLine();" style="whiteSpace=wrap;html=1;fontFamily=Courier New;align=left;labelBorderColor=none;rounded=0;shadow=0;sketch=0;glass=0;fillColor=#FFCCCC;strokeColor=none;" vertex="1" parent="1">
          <mxGeometry x="327" y="520" width="190" height="40" as="geometry" />
        </mxCell>
        <mxCell id="AcG9Qibjat7s5igX1NYG-6" value="int arraySize = Convert.ToInt32(line);" style="whiteSpace=wrap;html=1;fontFamily=Courier New;align=left;labelBorderColor=none;rounded=0;shadow=0;sketch=0;glass=0;fillColor=#FFCCCC;strokeColor=none;" vertex="1" parent="1">
          <mxGeometry x="820" y="560" width="270" height="50" as="geometry" />
        </mxCell>
        <mxCell id="AcG9Qibjat7s5igX1NYG-7" value="int[] array;" style="whiteSpace=wrap;html=1;fontFamily=Courier New;align=left;labelBorderColor=none;rounded=0;shadow=0;sketch=0;glass=0;fillColor=#FFCCCC;strokeColor=none;" vertex="1" parent="1">
          <mxGeometry x="410" y="220" width="120" height="60" as="geometry" />
        </mxCell>
        <mxCell id="AcG9Qibjat7s5igX1NYG-8" value="array = new int[arraySize];" style="whiteSpace=wrap;html=1;fontFamily=Courier New;align=left;labelBorderColor=none;rounded=0;shadow=0;sketch=0;glass=0;fillColor=#FFCCCC;strokeColor=none;" vertex="1" parent="1">
          <mxGeometry x="750" y="430" width="280" height="60" as="geometry" />
        </mxCell>
        <mxCell id="AcG9Qibjat7s5igX1NYG-9" value="int i = 0;" style="whiteSpace=wrap;html=1;fontFamily=Courier New;align=left;labelBorderColor=none;rounded=0;shadow=0;sketch=0;glass=0;fillColor=#FFCCCC;strokeColor=none;" vertex="1" parent="1">
          <mxGeometry x="40" y="570" width="120" height="60" as="geometry" />
        </mxCell>
        <mxCell id="AcG9Qibjat7s5igX1NYG-10" value="while (i &amp;lt; array.Length)&lt;br&gt;{" style="whiteSpace=wrap;html=1;fontFamily=Courier New;align=left;labelBorderColor=none;rounded=0;shadow=0;sketch=0;glass=0;fillColor=#FFCCCC;strokeColor=none;" vertex="1" parent="1">
          <mxGeometry x="260" y="60" width="200" height="40" as="geometry" />
        </mxCell>
        <mxCell id="AcG9Qibjat7s5igX1NYG-11" value="Console.WriteLine($&quot;Input element {i}:&quot;);" style="whiteSpace=wrap;html=1;fontFamily=Courier New;align=left;rounded=0;shadow=0;sketch=0;glass=0;fillColor=#FFCCCC;strokeColor=none;" vertex="1" parent="1">
          <mxGeometry x="15" y="130" width="310" height="50" as="geometry" />
        </mxCell>
        <mxCell id="AcG9Qibjat7s5igX1NYG-12" value="line = Console.ReadLine();" style="whiteSpace=wrap;html=1;fontFamily=Courier New;align=left;rounded=0;shadow=0;sketch=0;glass=0;fillColor=#FFCCCC;strokeColor=none;" vertex="1" parent="1">
          <mxGeometry x="180" y="490" width="220" height="40" as="geometry" />
        </mxCell>
        <mxCell id="AcG9Qibjat7s5igX1NYG-13" value="int number = Convert.ToInt32(line);" style="whiteSpace=wrap;html=1;fontFamily=Courier New;align=left;rounded=0;shadow=0;sketch=0;glass=0;fillColor=#FFCCCC;strokeColor=none;" vertex="1" parent="1">
          <mxGeometry x="280" y="300" width="270" height="30" as="geometry" />
        </mxCell>
        <mxCell id="AcG9Qibjat7s5igX1NYG-14" value="array[i] = number;" style="whiteSpace=wrap;html=1;fontFamily=Courier New;align=left;rounded=0;shadow=0;sketch=0;glass=0;fillColor=#FFCCCC;strokeColor=none;" vertex="1" parent="1">
          <mxGeometry x="20" y="210" width="260" height="40" as="geometry" />
        </mxCell>
        <mxCell id="AcG9Qibjat7s5igX1NYG-15" value="i += 1;" style="whiteSpace=wrap;html=1;fontFamily=Courier New;align=left;rounded=0;shadow=0;sketch=0;glass=0;fillColor=#FFCCCC;strokeColor=none;" vertex="1" parent="1">
          <mxGeometry x="710" y="260" width="120" height="30" as="geometry" />
        </mxCell>
        <mxCell id="AcG9Qibjat7s5igX1NYG-16" value="}" style="whiteSpace=wrap;html=1;fontFamily=Courier New;align=left;rounded=0;shadow=0;sketch=0;glass=0;fillColor=#FFCCCC;strokeColor=none;" vertex="1" parent="1">
          <mxGeometry x="90" y="310" width="120" height="60" as="geometry" />
        </mxCell>
        <mxCell id="AcG9Qibjat7s5igX1NYG-17" value="Console.WriteLine(&quot;The array is: &quot; + string.Join(&quot;, &quot;, array));" style="whiteSpace=wrap;html=1;fontFamily=Courier New;align=left;rounded=0;shadow=0;sketch=0;glass=0;fillColor=#FFCCCC;strokeColor=none;" vertex="1" parent="1">
          <mxGeometry x="414" y="115" width="490" height="30" as="geometry" />
        </mxCell>
      </root>
    </mxGraphModel>
  </diagram>
</mxfile>
